# xmcd
#
# Track frame offsets: 
#        225
#        9250
#        23808
#        34175
#        45501
#        57438
#        69350
#        79187
#        93549
#        103908
#        114107
#        124760
#        133502
#        141779
#        152853
#        161508
#        172194
#        184868
#        196193
#        205977
#        214822
#        225639
#        236390
#        247302
#        257889
#        267087
#        276460
#        286215
#        300683
#        311372
#
# Disc length: 4306 seconds
#
# Revision: 0
# Processed by: cddbd v1.5.1PL0 Copyright (c) Steve Scherf et al.
# Submitted via: ExactAudioCopy v0.95a4
#
DISCID=b010cf1e
DTITLE=Various Artist - Dvorana Slavy Vanocni
DYEAR=1997
DGENRE=Country
TTITLE0=Chet Atkins - Winter Walkin'
TTITLE1=Jim Reeves - White Christmas
TTITLE2=Eddy Arnold - C-H-R-I-S-T-M-A-S
TTITLE3=Johnny Cash - I Heard The Bells On Christmas Day
TTITLE4=Wilf Carter - Silver Bells
TTITLE5=Elvis Presley - Oh Litle Town Of Betlehem
TTITLE6=Bobby Helms - Jingle Bell Rock
TTITLE7=Jim Reeves - Mary's Little Boy Child
TTITLE8=Brenda Lee - I'm Gonna Lasso Santa Claus
TTITLE9=Wilf Carter - Rudolph The Red Nosed Reindeer
TTITLE10=Eddy Arnold - Christmas Can't Be Far Away
TTITLE11=Elvis Presley - I'll Be Home For Christmas
TTITLE12=Jim Reeves - Jingle Bells
TTITLE13=Brenda Lee - Papa Noel
TTITLE14=Eddy Arnold - Santa Claus Is Comin' To Town
TTITLE15=Wolf Carter - Ting-A-Ling-Jingle
TTITLE16=Jim Reeves - An Old Christmas Card
TTITLE17=Tommy Jackson - Footprints In The Snow
TTITLE18=Eddy Arnold - It Came Upon The Midnight Clear
TTITLE19=Elvis Presley - Here Comes Santa Claus
TTITLE20=Jim Reeves - Senor Santa Claus
TTITLE21=Brenda Lee - Christy Christmas
TTITLE22=Johnny Cash - Blue Christnas
TTITLE23=Eddy Arnold - Will Santa Come To Shanty Town
TTITLE24=Jim Reeves - Oh Come All Ye Faithful
TTITLE25=Brenda Lee - Rockin' Around The Christmas Tree
TTITLE26=Wilf Carter - Jolly Old Saint Nicholas
TTITLE27=Jim Reeves - Silent Night
TTITLE28=Eddy Arnold - Winter Wonderland
TTITLE29=Chet Atkins - Guitar Country
EXTD=
EXTT0=
EXTT1=
EXTT2=
EXTT3=
EXTT4=
EXTT5=
EXTT6=
EXTT7=
EXTT8=
EXTT9=
EXTT10=
EXTT11=
EXTT12=
EXTT13=
EXTT14=
EXTT15=
EXTT16=
EXTT17=
EXTT18=
EXTT19=
EXTT20=
EXTT21=
EXTT22=
EXTT23=
EXTT24=
EXTT25=
EXTT26=
EXTT27=
EXTT28=
EXTT29=
PLAYORDER=
